<?xml version="1.0" encoding="utf-8"?>
<!-- Generator: Adobe Illustrator 17.1.0, SVG Export Plug-In . SVG Version: 6.00 Build 0)  -->
<!DOCTYPE svg PUBLIC "-//W3C//DTD SVG 1.1//EN" "http://www.w3.org/Graphics/SVG/1.1/DTD/svg11.dtd">
<svg version="1.1" id="Layer_1" xmlns="http://www.w3.org/2000/svg" xmlns:xlink="http://www.w3.org/1999/xlink" x="0px" y="0px"
	 viewBox="0 0 50 50" enable-background="new 0 0 50 50" xml:space="preserve">
<path fill="#FFFFFF" d="M46.3,44.2c-1.6,1.1-3.2,2.1-4.9,3.2c-7-10.7-14.1-21.5-21.3-32.4c-3.4,3-6.1,6.4-8.3,10.1
	c-3.2-4.7-6.4-9.4-9.6-14.1c2.2-0.5,4.4-0.9,6.4-1.5c2.1-0.6,4.1-1.4,6.3-2.2c-0.4-0.7-0.7-1.2-1-1.7c1.6-1.1,3.2-2.1,4.9-3.2
	c0.3,0.4,0.7,0.9,1,1.4c0.3,0.4,0.5,0.5,0.9,0.2c0.5-0.4,1.1-0.7,1.6-1c1.4,2.2,2.8,4.4,4.3,6.6c-0.4,0.3-0.9,0.7-1.5,1
	c-0.4,0.3-0.5,0.6-0.2,1c0.2,0.2,0.3,0.5,0.5,0.8C32.3,22.8,39,33,45.8,43.3C46,43.6,46.2,43.9,46.3,44.2z"/>
</svg>
